<?xml version="1.0" standalone="no"?>
<!DOCTYPE svg PUBLIC "-//W3C//DTD SVG 20010904//EN"
 "http://www.w3.org/TR/2001/REC-SVG-20010904/DTD/svg10.dtd">
<svg version="1.0" xmlns="http://www.w3.org/2000/svg"
 width="1000.000000pt" height="1000.000000pt" viewBox="0 0 1000.000000 1000.000000"
 preserveAspectRatio="xMidYMid meet">
<metadata>
Created by potrace 1.14, written by Peter Selinger 2001-2017
</metadata>
<g transform="translate(0.000000,1000.000000) scale(0.100000,-0.100000)"
fill="#000000" stroke="none">
<path d="M4666 9989 c-1046 -67 -2057 -474 -2881 -1160 -136 -113 -414 -387
-544 -535 -515 -587 -886 -1286 -1081 -2039 -327 -1259 -146 -2611 499 -3734
221 -385 448 -685 761 -1005 424 -433 849 -743 1375 -1001 512 -252 1025 -406
1575 -474 1398 -173 2762 228 3845 1130 136 113 414 387 544 535 515 587 886
1286 1081 2039 327 1259 146 2611 -499 3734 -221 385 -448 685 -761 1005 -424
433 -849 743 -1375 1001 -794 391 -1651 560 -2539 504z m-501 -2279 c91 -29
105 -37 155 -89 136 -139 197 -366 170 -638 -7 -65 -14 -120 -16 -122 -2 -2
-75 11 -161 29 l-158 34 0 165 c0 159 -1 168 -25 210 -36 64 -78 85 -165 85
-98 0 -168 -39 -304 -169 -505 -485 -973 -1425 -1145 -2297 -95 -478 -109
-1020 -35 -1313 42 -163 115 -272 217 -322 50 -25 68 -28 152 -28 89 0 99 2
160 35 102 54 276 233 383 395 245 371 419 772 792 1831 217 614 328 901 424
1093 21 42 62 132 91 201 70 168 181 413 241 533 34 68 54 97 67 97 30 -1 521
-106 528 -113 4 -4 -47 -118 -113 -255 -408 -834 -709 -1716 -895 -2618 -41
-202 -42 -215 -43 -394 0 -171 2 -189 24 -243 61 -152 171 -198 310 -127 80
40 171 131 249 249 33 51 63 98 65 104 1 5 64 -40 139 -102 128 -106 136 -114
127 -138 -25 -66 -216 -435 -279 -540 -182 -301 -363 -479 -545 -536 -142 -44
-303 -21 -431 61 -183 119 -289 322 -328 631 l-12 94 -58 -137 c-258 -604
-565 -976 -902 -1092 -68 -24 -96 -28 -194 -28 -88 -1 -128 3 -170 18 -373
128 -626 539 -725 1176 -23 145 -31 521 -16 702 76 888 451 1947 951 2688 345
510 708 812 1075 894 115 26 276 16 400 -24z m3119 -1275 c126 -17 254 -51
352 -95 210 -95 418 -300 533 -528 30 -60 91 -228 91 -251 0 -8 -78 -11 -277
-9 l-276 3 -45 89 c-109 216 -310 326 -594 326 -115 0 -219 -24 -327 -77 -192
-92 -337 -286 -409 -545 -26 -94 -25 -415 2 -513 67 -250 219 -451 407 -544
125 -61 191 -75 344 -74 147 1 247 22 353 74 114 56 236 192 279 311 l17 48
269 0 269 0 -7 -32 c-27 -127 -116 -317 -205 -437 -223 -299 -538 -442 -975
-443 -390 0 -688 120 -935 378 -239 250 -354 539 -367 921 -14 384 85 698 305
966 154 188 386 339 616 399 179 47 387 59 580 33z"/>
</g>
</svg>
